<svg xmlns="http://www.w3.org/2000/svg" viewBox="0 0 480 485"><path d="M2.311-2.603c170.164 153.75 332.97 304.167 478.822 477.966M3.806-1.358c189.636 164.942 358.167 334.933 482.023 478.331" style="stroke:#fff;stroke-width:2;fill:none"/><path d="M-7.361-5.717C192.41 165.475 368.416 332.626 471.26 472.627M-4.396-4.846c174.598 153.36 355.077 329.988 480.392 477.256" style="stroke:#fff;stroke-width:2;fill:none"/><path d="M3.8.695C120.86 103.754 219.136 194.543 480.175 472.69M-2.207-1.49c123.385 129.72 238.67 241.748 480.832 482.068" style="stroke:#fff;stroke-width:2;fill:none"/><path d="M-.122.005c120.697 112.614 240.786 229.212 487.443 479.594M.83-2.362c99.239 124.249 216.743 235.845 483.934 479.484" style="stroke:#fff;stroke-width:2;fill:none"/><path d="M-2.392 1.042c126.834 125.412 273.377 265.954 478.12 488.14M-7.015 2.924c187.37 166.413 349.621 327.387 481.665 479.317" style="stroke:#fff;stroke-width:2;fill:none"/><path d="M4.12 479.145C183.39 304.179 369.55 112.99 481.79-1.032M6.29 480.707C105.055 369.258 211.317 263.076 484.15.957" style="stroke:#fff;stroke-width:2;fill:none"/><path d="M5.144 478.862c92.748-92.815 195.829-194.414 477.29-477.51M.303 482.096C134.076 333.03 287.276 183.478 479.941.435" style="stroke:#fff;stroke-width:2;fill:none"/><path d="M-2.449 475.34C173.804 308.435 347.96 148.163 476.86 4.677M-.359 481.611c96.82-110.408 212.486-229.545 480.54-482.994" style="stroke:#fff;stroke-width:2;fill:none"/><path d="M9.499 487.261C121.191 382.297 232.565 272.952 486.024-.446M5.56 485.77C124.144 370.6 259.565 231.196 485.465 3.97" style="stroke:#fff;stroke-width:2;fill:none"/><path d="M6.299 477.912C147.285 375.676 277.222 255.873 482.013-3.813M3.43 480.1C117.259 354.982 217.605 255.294 484.354-3.164" style="stroke:#fff;stroke-width:2;fill:none"/><path d="M125.956 119.816c5.275 78.795 9.436 167.405-4.307 235.693m3.147-237.736c-4.007 75.324-5.464 153.037 1.354 243.782" style="stroke:#fff;stroke-width:2;fill:none"/><path d="M129.552 117.07300000000001c-5.463 72.55.64 154.51-3.295 238.935m-1.309-234.228c2.181 58.141.413 115.36.885 237.815M116.619 120.41c1.733 96.604 3.848 184.417-4.854 235.329m5.267-235.369c-9.635 62.289-8.062 125.875 1.552 237.586" style="stroke:#fff;stroke-width:2;fill:none"/><path d="M115.388 115.29c-12.128 69.593-8.955 154.632-2.908 244.62m.711-244.868c-7.995 47.617-6.92 100.87 3.959 241.999" style="stroke:#fff;stroke-width:2;fill:none"/><path d="M112.255 121.96c5.353 87.879 5.605 171.741.183 240.581m5.146-240.603c8.843 79.981 6.597 162.968.186 239.167M357.96200000000005 113.718c-5.504 56.83-6.039 104.3 2.304 239.062m-4.052-236.172c-6.22 67.286-11.033 126.984-2.996 242.292" style="stroke:#fff;stroke-width:2;fill:none"/><path d="M363.222 117.551c2.09 56.988 6.027 113.858 1.783 244.767m-3.646-242.567c10.863 56.708 10.77 114.438-2.327 240.348" style="stroke:#fff;stroke-width:2;fill:none"/><path d="M354.679 119.528c-7.095 72.924-8.068 149.157 4.649 240.78m2.175-244.566c-1.755 95.022 1.669 184.931-2.761 240.537" style="stroke:#fff;stroke-width:2;fill:none"/><path d="M359.223 121.105c-9.207 85.874-9.434 175.45 5.311 243.232m1.524-247.04c-9.355 71.3-9.436 138.992-4.282 244.743" style="stroke:#fff;stroke-width:2;fill:none"/><path d="M355.967 120.18c-3.46 50.837-2.109 109.934 2.135 236.78m.953-238.166c6.283 71.638 10.13 147.902 1.197 238.41" style="stroke:#fff;stroke-width:2;fill:none"/><path d="M74.938 243.447c.952-94.302 71.739-170.415 173.249-165.834M77.474 240.533c2.977-93.177 72.878-165.251 171.222-162.844m0 0c91 .953 166.99 78.343 165.697 165.97M247.921 72.323c92.222 1.37 163.877 74.996 171.519 174.141m0 0c5.081 89.508-79.694 171.894-166.619 166.81m171.394-169.782c-7.355 93.233-75.37 178.863-172.765 168.307m0 0c-98.604-4.014-173.058-74.285-174.72-168.185M247.633 406.48c-95.47 6.953-164.565-67.935-159.86-162.261m-2.696-.059c-3.642 1.233-9.066.079-9.413-.574m13.5 1.67c-7.702-3.288-9.63-1.55-13.452-3.391" style="stroke:#fff;stroke-width:2;fill:none"/><path d="M71.256 241.646c4.48-97.363 78.392-166.966 165.21-174.118M67.139 243.596c-2.301-92.048 77.007-172.055 169.528-168.35m0 0c88.916.37 172.24 71.786 164.77 170.7M237.206 73.93c89.033.473 169.14 77.926 165.488 169.38m0 0c2.174 95.413-70.884 168.842-170.15 174.805m171.91-171.7c.685 87.46-76.956 168.654-167.432 168.478m0 0c-90.634-2.316-167.422-81-168.726-168.512M233.288 416.58c-91.344-3.032-164.069-82.624-162.224-167.365m1.277-.49c-.548-3.862-2.602-2.376-1.22-8.824m-.239 9.495c.777-2.874 1.166-4.686-.072-7.576" style="stroke:#fff;stroke-width:2;fill:none"/><path d="M71.912 237.427c-5.363-97.631 76.023-165.797 172.495-166.2M73.329 238.922c3.473-101.37 79.456-168.394 171.418-175.253m0 0c91.455 5.14 167.178 77.674 171.256 168.43M240.516 65.14c93.696-2.68 178.868 71.976 171.532 172.887m0 0c2.684 96.45-79.788 171.189-173.99 165.517M411.63 235.727c-6.025 99.915-79.083 165.918-170.719 166.412m0 0c-89.764-5.154-170.33-78.87-169.051-170.236m169.247 174.422c-100.593-6.817-165.02-84.99-168.922-171.621m-.294.127c.75.329.815 2.217-.627 2.375m1.234-2.409c-.069.61-.368 1.545-.675 2.309" style="stroke:#fff;stroke-width:2;fill:none"/><path d="M70.138 235.616c.79-91.183 75.498-174.197 165.61-175.032M74.793 235.135C73.28 143.093 151.302 65.43 246.079 67.608m0 0c93.512 2.45 168.373 79.1 172.915 168.466M248.707 68.106c96.313 3.584 164.6 69.511 170.678 174.44m0 0c3.749 93.594-80.494 167.744-168.85 168.17m173.528-167.073C422.43 334.33 337.906 410.686 253.36 407.59m0 0c-93.667 1.755-164.5-79.248-168.52-172.788m170.93 174.887c-99.16-4.544-169.358-82.542-174.58-174.945m1.691-2.24c-4.233.561-8.448.698-10.952 1.405m8.11 1.526c-1.041-2.311-5.89.632-10.128-.258" style="stroke:#fff;stroke-width:2;fill:none"/><path d="M66.013 235.295c-2.528-91.526 74.682-172.081 167.274-164.47M69.639 239.028c.247-94.298 75.461-179.342 166.44-180.172m0 0c93.366 4.801 166.337 80.594 169.022 174.872M232.38 54.418c102.015 8.205 178.744 81.458 178.056 177.22m0 0c-.196 96.386-72.563 170.176-166.098 170.361m163.4-174.812c-2.428 96.99-74.586 168.95-172.748 176.75m0 0c-98.587-5.381-173.538-80.328-169.093-168.92m169.355 171.827c-90.194.721-169.593-77.307-163.594-167.91m.695-.283c-3.883 1.248-3.32-1.573-4.843-3.422m5.046 4.458c-3.135-2.464-4.92-2.258-7.232-3.659" style="stroke:#fff;stroke-width:2;fill:none"/></svg>