<svg id="svg" xmlns="http://www.w3.org/2000/svg" viewBox="0 0 480 485"><g><path d="M4.115181807352162 -2.6777616930743253 M2.311086646814566 -2.603344200365554 C172.47468157530335 151.1472243773418, 335.2800825827502 301.5636202734623, 481.1329948047433 475.3630279502041 M3.8059435763858804 -1.3584529351537178 C193.4417751552285 163.58431895705428, 361.9726377273991 333.5751232113639, 485.8291743933398 476.9733455316092" style="stroke: white; stroke-width: 2; fill: none;"></path></g><g><path d="M-4.42515124276936 -5.110819172094762 M-7.361317026356495 -5.716536894313366 C192.41102692804665 165.47545793609765, 368.41598917710644 332.6258717585643, 471.2603251647952 472.6269491076886 M-4.395629744880009 -4.845651893852047 C170.2020676487329 148.51465422429695, 350.6809204995172 325.14169194277514, 475.99639113154615 472.40956953259615" style="stroke: white; stroke-width: 2; fill: none;"></path></g><g><path d="M-0.5237685171191049 -2.1102274668786056 M3.8000712011066757 0.6953460696652587 C120.85979407412844 103.7539393477826, 219.13552992781578 194.54341369678048, 480.17501758769487 472.6894736132183 M-2.207021433682323 -1.4915644105962387 C121.17799083299455 128.22916645906975, 236.4632648128544 240.2567858491649, 478.62494404095884 480.57722835227236" style="stroke: white; stroke-width: 2; fill: none;"></path></g><g><path d="M3.279739356838762 -4.254896381661305 M-0.12194710518879193 0.004082739904660571 C120.57453066873089 112.61909649765458, 240.66442387204245 229.21694030700039, 487.3207737746125 479.59875618508585 M0.8318838576528877 -2.3623250827994147 C100.06978712567245 121.88702914119857, 217.5736558322787 233.48255976186383, 484.76538597635687 477.1216915486596" style="stroke: white; stroke-width: 2; fill: none;"></path></g><g><path d="M-4.487589886731786 4.291953147903537 M-2.39198904380121 1.0421228035419396 C124.44202462331748 126.45422076943301, 270.9853259614985 266.9964167119687, 475.72717180557095 489.18202556565603 M-7.0140135049256145 2.9242130263588986 C180.35665060004578 169.3371455435505, 342.60721079886866 330.31134289670695, 474.6507242918894 482.241485605862" style="stroke: white; stroke-width: 2; fill: none;"></path></g><g><path d="M4.7884796686056745 481.3152361567251 M4.120352493389893 479.14558810020554 C183.39074045919892 304.1783846464748, 369.55021774498397 112.98978661210137, 481.789142622517 -1.0329577103098013 M6.2891751922616885 480.70758717847485 C105.0557615882856 369.25764533601523, 211.31825760814957 263.0747985984556, 484.1506409052185 0.9557963005594491" style="stroke: white; stroke-width: 2; fill: none;"></path></g><g><path d="M1.7538629295366246 481.3702143779477 M5.143762038010984 478.86211204724214 C97.89150511193306 386.04651109626946, 200.97278527178955 284.4484610293606, 482.4333144510835 1.3527509924218777 M0.30402592739171364 482.0954055607703 C134.07609975060402 333.0302273209974, 287.276269116641 183.47761282210155, 479.9414338211998 0.43461432302938174" style="stroke: white; stroke-width: 2; fill: none;"></path></g><g><path d="M1.7672163289342067 479.95788606008836 M-2.4493243270290446 475.3396493092026 C173.80383882560815 308.4348024278126, 347.9597850375039 148.1629950744007, 476.8601444224494 4.677336243205642 M-0.3578380668176868 481.6107816667374 C96.4623657350638 371.2026202291875, 212.12767316596677 252.06634031849697, 480.1826149494652 -1.3825719871751887" style="stroke: white; stroke-width: 2; fill: none;"></path></g><g><path d="M4.548426890760183 484.4887545719138 M9.499350363083806 487.2610335504572 C121.19074082717509 382.29700714973137, 232.56499910061905 272.9520663909399, 486.02423074962917 -0.44617005066380955 M5.559535491138292 485.7699413733358 C124.14408830667738 370.6001120410713, 259.56534398211676 231.19587136001746, 485.46492055197103 3.970461645837571" style="stroke: white; stroke-width: 2; fill: none;"></path></g><g><path d="M4.186494789182686 478.9615099090364 M6.298858267831205 477.911345522597 C147.28527961781677 375.67655876664514, 277.22212014085613 255.87396757017547, 482.01299288521324 -3.8116943584272303 M3.429593744890539 480.0991193191488 C117.25901340394329 354.981760000449, 217.60457470750816 255.29400471723062, 484.35373506291944 -3.164237458987171" style="stroke: white; stroke-width: 2; fill: none;"></path></g><g><path d="M123.82089545988602 119.0789203546912 M125.95565859959733 119.81628051267771 C131.23086832091562 198.61099468907807, 135.3920564617655 287.2209826093236, 121.648989614835 355.5089377264795 M124.79637856090018 117.77305534082008 C120.78947568993055 193.09723541248556, 119.33185001570496 270.8101485852052, 126.15043296242703 361.55502157895864" style="stroke: white; stroke-width: 2; fill: none;"></path></g><g><path d="M124.7476427740935 119.14902566276861 M129.5524966467543 117.07291653461583 C124.08867947325074 189.623687307656, 130.19261303735743 271.5833725959752, 126.25744716922101 356.007742003712 M124.94844885661891 121.77965927281069 C127.12940459971264 179.92132486074465, 125.36135638091682 237.1400607986809, 125.83322670015438 359.59465957768936" style="stroke: white; stroke-width: 2; fill: none;"></path></g><g><path d="M116.27324685496386 119.02052187403572 M116.61934158486851 120.41013512406667 C118.35238583196809 217.01358951996872, 120.46663748816736 304.826939126795, 111.76510988815077 355.73880526094126 M117.03175607784374 120.37026633153931 C107.39749981877782 182.65851959340173, 108.96988359390812 246.2448517073558, 118.58407505971321 357.9564809783531" style="stroke: white; stroke-width: 2; fill: none;"></path></g><g><path d="M114.93584944714479 114.79030181952876 M115.388017408948 115.28966343953438 C103.25968466283057 184.88314036826281, 106.43283018715232 269.9223891472847, 112.48014593073285 359.9102465473941 M113.19119143677743 115.04157655000193 C105.19609845666038 162.6589925028605, 106.2700654495951 215.91128007083293, 117.14959538295632 357.04065195771153" style="stroke: white; stroke-width: 2; fill: none;"></path></g><g><path d="M117.54799034964249 121.49050991811522 M112.25492343284182 121.96063671818912 C117.60780361473782 209.8386077988521, 117.86041369799504 293.7011612132558, 112.43822876743884 362.54125253785895 M117.5835410970188 121.93797024269173 C126.42730782750571 201.91901313458743, 124.18078212731284 284.9064969294102, 117.77026947644184 361.1051747591156" style="stroke: white; stroke-width: 2; fill: none;"></path></g><g><path d="M355.89818326925706 117.51510071807907 M357.9616401815217 113.71806746624218 C352.4579204257397 170.54734976859837, 351.9232874276561 218.01765275175754, 360.2664256691016 352.7801441796669 M356.2141501069418 116.60764281520457 C349.99482483682124 183.89395120261824, 345.1809436508805 243.591714440952, 353.2184959919948 358.89972953529184" style="stroke: white; stroke-width: 2; fill: none;"></path></g><g><path d="M360.23861236747047 117.77339837789114 M363.2218821749266 117.55073652481032 C365.31251629686454 174.53900095806097, 369.24928699284106 231.4087051453375, 365.0046757886226 362.31766353775123 M361.35942052283673 119.75105391681528 C372.22244385969645 176.4592705211943, 372.128114481759 234.18883576312786, 359.0321324584466 360.0994398861434" style="stroke: white; stroke-width: 2; fill: none;"></path></g><g><path d="M359.4125751839559 117.91651162268317 M354.67908808607376 119.52825267635973 C347.58400342402666 192.4523291691202, 346.61136153587057 268.6845331923804, 359.327803650452 360.3079125732003 M361.50309845204356 115.74163257081865 C359.74827619802244 210.76431022193142, 363.1719787273591 300.67298377834203, 358.741774102889 356.2791246399368" style="stroke: white; stroke-width: 2; fill: none;"></path></g><g><path d="M364.2059420748455 119.67793306218655 M359.2232321138955 121.10487191708035 C350.0160194359486 206.9789569711539, 349.7894046872725 296.5541907714766, 364.5342183909678 364.33675952021775 M366.05777311144766 117.29643675197251 C356.7027891654426 188.59733008215176, 356.62227981637074 256.2892718383639, 361.7755978751446 362.0398470664843" style="stroke: white; stroke-width: 2; fill: none;"></path></g><g><path d="M360.2099440398172 116.1500397102945 M355.9669652340455 120.18067794578926 C352.5071875910469 171.0174797631086, 353.8582009203477 230.11395392920033, 358.10188781216266 356.95948700164655 M359.0545577352756 118.79360068319889 C365.33835110054497 190.43227547753287, 369.1849479379439 266.69604285537304, 360.2518722502351 357.20345254289487" style="stroke: white; stroke-width: 2; fill: none;"></path></g><g><path d="M74.93767518740636 243.44712260328097 M74.93767518740636 243.44712260328097 C75.89009734687363 149.14499039881946, 146.67694877681618 73.03210555434262, 248.18698041459464 77.61323967711512 M77.47406037434267 240.53290028833786 C80.4514358954412 147.35594451041146, 150.352144768441 75.28199763313503, 248.69642068296363 77.6892560511412 M248.69642068296363 77.6892560511412 C339.69674252481406 78.64200562654673, 415.68534703907596 156.0315495523451, 414.3933717513413 243.65822766363894 M247.92133827780188 72.32373479700125 C340.14321497844224 73.69345606600021, 411.7977809403636 147.31969238198016, 419.4395538018927 246.46503188055553 M419.4395538018927 246.46503188055553 C424.5211892765022 335.97268816081873, 339.74606921956513 418.35854578979206, 252.82101135000826 413.2747226904549 M424.21458918330507 243.49257566544526 C416.85985543960055 336.7263702661907, 348.84474258251004 422.35598213068243, 251.45038535035374 411.8000305426241 M251.45038535035374 411.8000305426241 C152.8464949131175 407.7858879799736, 78.3920768599808 337.51505943015553, 76.72921811501597 243.6145649238095 M247.63394841303392 406.48069317065983 C152.16375812657944 413.4336088234673, 83.06902289650779 338.54645711246224, 87.77312731793447 244.21989246016042 M85.07829901908208 244.16128926014684 C81.43600476351376 245.39389495870697, 76.01213772875748 244.23984712829386, 75.66533003525866 243.58706624678695 M89.16569859126238 245.25670128071383 C81.46334798215257 241.9690655500598, 79.53505779254884 243.70745465023154, 75.71253164714291 241.86567323783012" style="stroke: white; stroke-width: 2; fill: none;"></path></g><g><path d="M71.25608841584237 241.64596761633138 M71.25608841584237 241.64596761633138 C75.73566617404971 144.28273195749284, 149.64778778484944 74.67997654494333, 236.46683138739888 67.52750380324491 M67.13805183652502 243.5958976451788 C64.83654333746378 151.5483641830164, 144.1453391595055 71.54094483219806, 236.6657205905781 75.24537584943647 M236.6657205905781 75.24537584943647 C325.5816406419068 75.61600708277285, 408.9061047153479 147.0322872678446, 401.4350926096688 245.94537843392413 M237.20730384848423 73.93111968227282 C326.2400288471456 74.40420374492315, 406.3468304756031 151.8569784884264, 402.6949599507736 243.31143243135264 M402.6949599507736 243.31143243135264 C404.8685480784932 338.7236383812908, 331.81127808536615 412.15252777516304, 232.54532666011303 418.1155172310697 M404.4540650938955 246.41542789006635 C405.1402143059336 333.8754395833843, 327.498687370129 415.0703755884859, 237.0233783343532 414.89373602281125 M237.0233783343532 414.89373602281125 C146.38893171779767 412.5779722828549, 69.6012512709211 333.89346307068064, 68.2968780100021 246.38204820686408 M233.28803131538584 416.5802234651446 C141.9437031410626 413.547950619324, 69.21940635520461 333.9556679967814, 71.06399844146195 249.21509979049702 M72.34144660890672 248.72470006099994 C71.7931554406743 244.86299545630433, 69.7394336463648 246.34898099033313, 71.1207811586509 239.90098564527528 M70.88199539225008 249.395936543289 C71.65923419448058 246.5218903975071, 72.04835850468672 244.71019731229515, 70.80967596024966 241.82011244592292" style="stroke: white; stroke-width: 2; fill: none;"></path></g><g><path d="M71.912325676221 237.42713181023132 M71.912325676221 237.42713181023132 C66.54870423562147 139.79596988593568, 147.93542216109057 71.63036463695126, 244.40663804012206 71.22608513576603 M73.32884460230257 238.92280006085855 C76.8023939433376 137.5536382823433, 152.785452077042 70.52914344518601, 244.74738823894083 63.669657158163005 M244.74738823894083 63.669657158163005 C336.20227012959924 68.81019133510647, 411.9247378392247 141.34373709273723, 416.00332857855267 232.09964370997332 M240.51569729758688 65.14083527432814 C334.2116275171502 62.46058193010779, 419.3841560100224 137.11602630621667, 412.0475345203166 238.02687193225486 M412.0475345203166 238.02687193225486 C414.7319469182516 334.4760878445568, 332.25995647541845 409.2155213965955, 238.05871935863684 403.5438555828409 M411.6291766631668 235.726560721563 C405.6040912495454 335.64229214232336, 332.54637038946936 401.6453579929678, 240.91032336183312 402.13884023088275 M240.91032336183312 402.13884023088275 C151.14631569246617 396.98505908772347, 70.58060948760686 323.2684102483514, 71.85875443187625 231.90258752941332 M241.10589346574392 406.32454804159244 C140.51270446874975 399.5083624040189, 76.08589131835669 321.3355837580752, 72.18395534723504 234.7039313796906 M71.88969288585281 234.83114673196556 C72.64047549900391 235.15972158388695, 72.70543099043441 237.0475726400801, 71.2634492373924 237.20629676785333 M72.49710027275286 234.7972649786897 C72.4280162762187 235.4061864131675, 72.12920749717235 236.34197809688195, 71.82221192752206 237.10567898185982" style="stroke: white; stroke-width: 2; fill: none;"></path></g><g><path d="M70.1375667162659 235.61575384811928 M70.1375667162659 235.61575384811928 C70.92749792927995 144.43290494350128, 145.63628680795827 61.41941283484968, 235.74746393600984 60.583895354733826 M74.79373949393279 235.1350243700761 C73.28054372183772 143.0927601396903, 151.30219145810267 65.43026818262726, 246.07867053366442 67.60787827195394 M246.07867053366442 67.60787827195394 C339.59098061946537 70.05727843306582, 414.45202996171645 146.70798237835274, 418.9942632036424 236.0744835915092 M248.70698291729377 68.10639633330746 C345.0202464551036 71.68993045481493, 413.30732079100795 137.61725394877573, 419.38541225277066 242.54675010375394 M419.38541225277066 242.54675010375394 C423.1336173148027 336.1398184692919, 338.89136249716483 410.2903816178044, 250.53414105967903 410.71509076981266 M424.06260138107496 243.64317448094118 C422.43076663934767 334.3303313606076, 337.9055277851258 410.68606436501284, 253.36146589826708 407.58931304052163 M253.36146589826708 407.58931304052163 C159.6944160861926 409.34403990599264, 88.86188496814253 328.34100936951427, 84.84133039422548 234.8005953557462 M255.77129875313847 409.68827402728095 C156.6117845262421 405.1439773954555, 86.41324887097913 327.146286690258, 81.19019775018941 234.74295796479575 M82.88235271474555 232.50294703374783 C78.64913818250649 233.06408706931583, 74.43354286631413 233.20124452946928, 71.92970901517667 233.90752357669885 M80.04053439242583 235.43428877795353 C78.99863940606868 233.12292662589448, 74.15017820099494 236.06622699712207, 69.91196844654355 235.1764673232487" style="stroke: white; stroke-width: 2; fill: none;"></path></g><g><path d="M66.0131164308669 235.29516123027693 M66.0131164308669 235.29516123027693 C63.48534329170208 143.76850866670924, 140.6952657952386 63.213787637812885, 233.28653116826928 70.8241070914308 M69.6386948801736 239.02919436299672 C69.88550369139165 144.7310649574861, 145.1002063046875 59.686584107518414, 236.07888209545956 58.85665711991226 M236.07888209545956 58.85665711991226 C329.44517709905955 63.65832723166276, 402.41618393852957 139.45145613172218, 405.10139471806536 233.72896747785333 M232.3798804390922 54.41770971020268 C334.3951711392446 62.622836288514414, 411.12360196880365 135.87571191151736, 410.4358826281835 231.63800406503248 M410.4358826281835 231.63800406503248 C410.24003320404756 328.02380964724296, 337.87285744592015 401.8143689556052, 244.33809467204833 401.9991115583897 M407.7371399306241 227.18709097585884 C405.3097090400964 324.1770724851585, 333.15178398143183 396.13609861110825, 234.9898022100315 403.9362018997929 M234.9898022100315 403.9362018997929 C136.40299448422059 398.5559303000582, 61.45157895041609 323.60879391405, 65.89656184347814 235.01611824692085 M235.25241781856937 406.8437362654908 C145.05803078733962 407.56530425048817, 65.65916182014564 329.53684688963364, 71.65787142023855 238.933909759904 M72.3527519815554 238.65064520549674 C68.47005400338095 239.89907338417115, 69.03353671188378 237.07837004002525, 67.50953186875738 235.22919200703635 M72.55646503783655 239.6869757119817 C69.42099120954187 237.22343579358022, 67.63536513522472 237.4293854685822, 65.32432568963677 236.02816016681322" style="stroke: white; stroke-width: 2; fill: none;"></path></g></svg>
